<?xml version="1.0" encoding="UTF-8"?>
<svg version="1.1" xmlns="http://www.w3.org/2000/svg" width="48" height="46">
<path d="M0 0 C15.84 0 31.68 0 48 0 C48 15.18 48 30.36 48 46 C32.16 46 16.32 46 0 46 C0 30.82 0 15.64 0 0 Z " fill="#3383CE" transform="translate(0,0)"/>
<path d="M0 0 C1.20408594 13.60808239 1.20408594 13.60808239 -3.125 18.8125 C-5.36416426 20.88563404 -7.17622229 22.08623644 -9.9375 23.4375 C-14.7856405 22.7449085 -17.82656096 19.60514793 -21 16 C-22.14077657 12.57767028 -22.09815117 9.91326783 -22.0625 6.3125 C-22.05347656 5.13300781 -22.04445313 3.95351563 -22.03515625 2.73828125 C-22.02355469 1.83464844 -22.01195312 0.93101563 -22 0 C-13.64567822 -4.46156333 -8.38666205 -4.19333102 0 0 Z " fill="#3886CF" transform="translate(35,13)"/>
<path d="M0 0 C1.20408594 13.60808239 1.20408594 13.60808239 -3.125 18.8125 C-5.36416426 20.88563404 -7.17622229 22.08623644 -9.9375 23.4375 C-14.7856405 22.7449085 -17.82656096 19.60514793 -21 16 C-22.14077657 12.57767028 -22.09815117 9.91326783 -22.0625 6.3125 C-22.05347656 5.13300781 -22.04445313 3.95351563 -22.03515625 2.73828125 C-22.02355469 1.83464844 -22.01195312 0.93101563 -22 0 C-13.64567822 -4.46156333 -8.38666205 -4.19333102 0 0 Z M-20 2 C-20.35892545 7.04489655 -20.58426255 10.85234141 -18.25 15.4375 C-16.28244749 17.67832369 -14.49984673 19.39295568 -12 21 C-7.68679932 19.24277009 -4.0968916 16.1937832 -2 12 C-1.93003986 10.29297265 -1.91559846 8.58331997 -1.9375 6.875 C-1.94652344 5.96492188 -1.95554687 5.05484375 -1.96484375 4.1171875 C-1.97644531 3.41851562 -1.98804687 2.71984375 -2 2 C-9.13258457 -0.85011064 -13.04633101 -1.47683449 -20 2 Z " fill="#F5F9FC" transform="translate(35,13)"/>
<path d="M0 0 C-0.99 1.485 -0.99 1.485 -2 3 C-3.216875 2.649375 -4.43375 2.29875 -5.6875 1.9375 C-9.12086896 1.06543648 -11.55349859 0.92296831 -15 2 C-15.33 1.01 -15.66 0.02 -16 -1 C-10.0905303 -3.95473485 -5.83850143 -2.14616851 0 0 Z " fill="#E5EFF9" transform="translate(33,12)"/>
<path d="M0 0 C0 0.66 0 1.32 0 2 C-0.99 2.495 -0.99 2.495 -2 3 C-2 6.63 -2 10.26 -2 14 C-2.99 14 -3.98 14 -5 14 C-5 9.71 -5 5.42 -5 1 C-2 0 -2 0 0 0 Z " fill="#FBFCFE" transform="translate(18,12)"/>
<path d="M0 0 C3.81684226 1.55500981 6.19195732 4.03595495 9 7 C8.67 7.99 8.34 8.98 8 10 C6.65787938 8.90653119 5.32652025 7.7998425 4 6.6875 C3.2575 6.07261719 2.515 5.45773438 1.75 4.82421875 C0 3 0 3 0 0 Z " fill="#E8F1F9" transform="translate(14,26)"/>
</svg>
